<?xml version="1.0" standalone="no"?>
<!DOCTYPE svg PUBLIC "-//W3C//DTD SVG 20010904//EN"
 "http://www.w3.org/TR/2001/REC-SVG-20010904/DTD/svg10.dtd">
<svg version="1.0" xmlns="http://www.w3.org/2000/svg"
 width="1280.000000pt" height="873.000000pt" viewBox="0 0 1280.000000 873.000000"
 preserveAspectRatio="xMidYMid meet">
<metadata>
Created by potrace 1.15, written by Peter Selinger 2001-2017
</metadata>
<g transform="translate(0.000000,873.000000) scale(0.100000,-0.100000)"
fill="#000000" stroke="none">
<path d="M5620 8724 c-19 -2 -84 -9 -144 -15 -146 -15 -311 -50 -443 -94 -120
-40 -323 -133 -323 -147 0 -6 143 -279 318 -608 l317 -598 80 -25 80 -25 3
-1138 c2 -1028 1 -1139 -14 -1147 -30 -17 -198 -284 -265 -422 -78 -161 -121
-288 -183 -535 l-43 -174 -64 -39 c-72 -43 -141 -95 -212 -159 l-48 -43 -16
-105 c-9 -58 -17 -106 -17 -107 -1 -1 -28 7 -59 19 l-58 21 40 41 c22 23 43
55 46 71 8 40 -79 492 -98 511 -10 10 -2445 1025 -2854 1189 -234 95 -526 195
-702 241 -179 47 -331 47 -491 -2 -195 -59 -361 -178 -431 -306 -30 -56 -34
-72 -34 -138 0 -63 5 -85 29 -135 62 -126 210 -239 506 -389 224 -114 329
-158 880 -376 261 -103 824 -327 1250 -498 426 -170 792 -316 812 -323 31 -11
37 -16 32 -35 -5 -17 4 -29 42 -58 50 -39 62 -40 139 -22 46 11 56 9 113 -13
l63 -25 165 55 164 55 212 -56 212 -55 2 -171 c3 -261 35 -345 189 -499 128
-127 275 -210 478 -269 86 -25 271 -62 337 -68 33 -3 27 -7 -90 -67 -69 -35
-126 -64 -127 -65 -1 -1 11 -83 27 -182 54 -330 139 -897 170 -1124 36 -270
55 -337 114 -418 147 -199 432 -281 826 -237 291 32 435 83 559 200 101 96
171 247 171 369 0 120 -133 645 -315 1241 -37 121 -74 243 -82 271 -15 50 -16
51 -61 60 l-47 9 103 29 c282 79 487 199 599 349 59 80 79 126 103 237 24 111
24 132 12 350 -6 96 -7 178 -3 182 4 5 92 39 197 77 l190 69 64 -14 c36 -8
144 -23 241 -36 l176 -21 66 26 c37 15 80 27 95 27 15 0 47 9 71 21 25 11 51
17 59 14 30 -11 183 -7 198 6 15 12 15 45 0 79 -5 13 41 35 236 115 1021 414
1946 848 2618 1228 582 329 878 551 961 722 29 60 34 80 34 145 0 62 -5 85
-28 132 -73 148 -301 268 -585 309 -125 17 -431 6 -556 -21 -194 -41 -274 -75
-793 -333 -623 -310 -2328 -1127 -3080 -1477 l-90 -41 -14 -272 c-8 -150 -14
-316 -14 -369 l0 -98 -48 -21 c-27 -11 -50 -19 -51 -17 -2 2 -21 28 -43 59
-88 121 -253 226 -475 304 l-77 27 -90 182 c-189 383 -346 617 -509 757 -31
27 -67 52 -79 55 -13 4 -23 9 -23 13 0 3 -13 229 -30 501 -16 272 -43 722 -60
1000 -16 278 -33 550 -36 605 l-6 100 68 29 c51 22 85 46 129 91 72 73 116
158 208 405 71 192 183 455 301 709 42 90 73 168 69 172 -26 24 -424 105 -663
135 -119 14 -526 27 -600 18z"/>
</g>
</svg>
